# xmcd
#
# Track frame offsets:
#	150
#	19910
#	31478
#	38621
#	48764
#	61195
#	72801
#	86394
#	96800
#	103381
#	113712
#	131355
#	140523
#	152879
#	166135
#	177478
#	187284
#
# Disc length: 2713 seconds
#
# Revision: 0
# Processed by: cddbd v1.5.2PL0 Copyright (c) Steve Scherf et al.
# Submitted via: EZCDAudioConverter 1.3.4.1
#
DISCID=e30a9711
DTITLE=Kari Peitsamo and Road Hogs - Pahat pojat ovat jälleen täällä
DYEAR=2013
DGENRE=
TTITLE0=Speden Saluuna
TTITLE1=Oklahoman kuiskaaja
TTITLE2=Älä mene siihen karaokebaariin
TTITLE3=Sekarotuinen piski
TTITLE4=Minkäpä tyttö sille voi
TTITLE5=Nimeni on Jukka
TTITLE6=Kuinka myöhään valvoo blues
TTITLE7=Vangin laulu
TTITLE8=Takametsä
TTITLE9=Butter Chicken
TTITLE10=En tahdo olla lentäjä
TTITLE11=Jenkkirauta
TTITLE12=Kiinalaista lääketiedettä
TTITLE13=Rokataan
TTITLE14=Pistolero
TTITLE15=Peer Günt ei saa lopettaa
TTITLE16=Pahat pojat ovat jälleen täällä
EXTD=
EXTT0=
EXTT1=
EXTT2=
EXTT3=
EXTT4=
EXTT5=
EXTT6=
EXTT7=
EXTT8=
EXTT9=
EXTT10=
EXTT11=
EXTT12=
EXTT13=
EXTT14=
EXTT15=
EXTT16=
PLAYORDER=
